<?xml version="1.0" encoding="utf-8"?>
<!-- Generator: Adobe Illustrator 21.1.0, SVG Export Plug-In . SVG Version: 6.00 Build 0)  -->
<svg version="1.1" id="Layer_1" xmlns="http://www.w3.org/2000/svg" xmlns:xlink="http://www.w3.org/1999/xlink" x="0px" y="0px"
	 viewBox="0 0 85 84.7" style="enable-background:new 0 0 85 84.7;" xml:space="preserve">
<style type="text/css">
	.st0{fill:#424242;}
</style>
<g>
	<path class="st0" d="M29.5,68.5c0,0,15.4,13.3,32.6,15.9c0,0,12,2.7,20.3-7.1c0,0,5.6-4.1,0.4-10.7l-13-12.8c0,0-3.1-3.6-8.1-0.4
		l-5.1,5c-1.6,1.5-4,1.8-5.8,0.7c-5.9-3.6-18-12.2-24.8-24.8c-1-1.9-0.7-4.2,0.8-5.7l3.5-3.5c0,0,5.9-5.2,0.1-11.1L17.5,1.3
		c0,0-4.6-3.3-9.2,0.7c0,0-11.1,9.3-7.6,25C0.8,27,1.1,43.6,29.5,68.5z"/>
</g>
</svg>
