<?xml version="1.0" encoding="utf-8"?>
<!-- Generator: Adobe Illustrator 21.1.0, SVG Export Plug-In . SVG Version: 6.00 Build 0)  -->
<svg version="1.1" id="Layer_1" xmlns="http://www.w3.org/2000/svg" xmlns:xlink="http://www.w3.org/1999/xlink" x="0px" y="0px"
	 viewBox="0 0 89 89" style="enable-background:new 0 0 89 89;" xml:space="preserve">
<style type="text/css">
	.st0{fill:#C5BCCF;}
</style>
<path class="st0" d="M44.5,0C20,0,0,20,0,44.5S20,89,44.5,89S89,69,89,44.5S69,0,44.5,0z M44.5,84C22.7,84,5,66.3,5,44.5
	S22.7,5,44.5,5S84,22.7,84,44.5S66.3,84,44.5,84z M60.9,24.9L47,38.5V13.3c0-1.4-1.1-2.5-2.5-2.5S42,12,42,13.3v31.2
	c0,1,0.6,1.9,1.5,2.3c0.3,0.1,0.6,0.2,1,0.2c0.6,0,1.3-0.2,1.8-0.7l18.2-17.8c1-1,1-2.5,0-3.5S61.9,23.9,60.9,24.9z"/>
</svg>
