<?xml version="1.0" encoding="utf-8"?>
<!-- Generator: Adobe Illustrator 21.1.0, SVG Export Plug-In . SVG Version: 6.00 Build 0)  -->
<svg version="1.1" id="Layer_1" xmlns="http://www.w3.org/2000/svg" xmlns:xlink="http://www.w3.org/1999/xlink" x="0px" y="0px"
	 viewBox="0 0 49 75.4" style="enable-background:new 0 0 49 75.4;" xml:space="preserve">
<style type="text/css">
	.st0{fill:#9B885F;}
</style>
<g>
	<path class="st0" d="M4,28.4c2.2,0,4-1.8,4-4c0-4.6,1.9-9,5.3-12.1c3.4-3.2,7.9-4.7,12.5-4.3c8.5,0.7,15.3,8.2,15.2,16.8
		c-0.2,8.1-5.6,14.6-13.3,15.9c-3.8,0.6-6.2,3.6-6.2,7.7v10c0,2.2,1.8,4,4,4s4-1.8,4-4v-9.9C40.6,46.4,48.7,36.6,49,25
		c0.3-13-9.6-24-22.5-25C19.6-0.5,13,1.7,7.9,6.4C2.9,11,0,17.6,0,24.4C0,26.6,1.8,28.4,4,28.4z"/>
	<circle class="st0" cx="25.5" cy="70.4" r="5"/>
</g>
</svg>
