<?xml version="1.0" encoding="utf-8"?>
<!-- Generator: Adobe Illustrator 21.1.0, SVG Export Plug-In . SVG Version: 6.00 Build 0)  -->
<svg version="1.1" id="Layer_1" xmlns="http://www.w3.org/2000/svg" xmlns:xlink="http://www.w3.org/1999/xlink" x="0px" y="0px"
	 viewBox="0 0 53 37.3" style="enable-background:new 0 0 53 37.3;" xml:space="preserve">
<style type="text/css">
	.st0{fill:#B2A2C3;}
</style>
<title>7.3</title>
<desc>Created with Sketch.</desc>
<g>
	<g>
		<path class="st0" d="M50,0.2c1.7,0,3,1.3,3,3v31c0,1.7-1.3,3-3,3H3c-1.7,0-3-1.3-3-3v-31c0-1.7,1.3-3,3-3C3,0.2,50,0.2,50,0.2z
			 M24.1,21.7L3.8,5.6C3.4,5.3,3,5.4,3,6v27.2c0,0.6,0.4,1,1,1h45c0.6,0,1-0.4,1-1V6c0-0.6-0.4-0.7-0.8-0.4L28.9,21.7
			C27.6,22.7,25.4,22.7,24.1,21.7z M46.5,3.2h-40C6,3.2,5.9,3.4,6.3,3.8l19.4,15.3c0.4,0.3,1.1,0.3,1.6,0L46.7,3.8
			C47.1,3.4,47,3.2,46.5,3.2z"/>
	</g>
</g>
</svg>
