<?xml version="1.0" encoding="utf-8"?>
<!-- Generator: Adobe Illustrator 21.1.0, SVG Export Plug-In . SVG Version: 6.00 Build 0)  -->
<svg version="1.1" id="Layer_1" xmlns="http://www.w3.org/2000/svg" xmlns:xlink="http://www.w3.org/1999/xlink" x="0px" y="0px"
	 viewBox="0 0 90.1 77.3" style="enable-background:new 0 0 90.1 77.3;" xml:space="preserve">
<style type="text/css">
	.st0{fill:#B2A2C3;}
</style>
<path class="st0" d="M13.4,46.5c4.7,4.7,9.5,9.5,14.2,14.2c5.3,5.3,10.7,10.7,16,16c0.8,0.8,2.1,0.8,2.9,0
	c9.3-9.3,18.6-18.6,27.9-27.9c3.5-3.5,7.3-6.8,10.4-10.5c7.3-8.9,6.9-22-0.8-30.6c-9-10-24.4-9.9-34-0.9c-1.7,1.7-3.3,3.3-5,5
	C38.6,5.4,32.2-0.6,22.3,0C9.7,0.6-0.6,11.7,0,24.5C0.5,34.2,7,40.1,13.4,46.5z M15.7,5.7c6.8-3,15-1.7,20.6,3.2
	c2.6,2.3,4.9,4.8,7.3,7.3c0.8,0.8,2.1,0.8,2.9,0c2.2-2.2,4.3-4.3,6.5-6.5c9.1-8.6,24.2-7,30.5,4.1c2.8,5,3.3,11.2,1.2,16.5
	c-1.5,4-4.4,6.7-7.3,9.6c-7.6,7.6-15.3,15.3-22.9,22.9c-3.1,3.1-6.3,6.3-9.4,9.4C36.5,63.8,28,55.3,19.4,46.7
	c-3.1-3.1-6.4-6.2-9.4-9.4C0.7,27.6,2.9,11.3,15.7,5.7z"/>
</svg>
