<?xml version="1.0" encoding="utf-8"?>
<!-- Generator: Adobe Illustrator 21.1.0, SVG Export Plug-In . SVG Version: 6.00 Build 0)  -->
<svg version="1.1" id="Layer_1" xmlns="http://www.w3.org/2000/svg" xmlns:xlink="http://www.w3.org/1999/xlink" x="0px" y="0px"
	 viewBox="0 0 16 20.1" style="enable-background:new 0 0 16 20.1;" xml:space="preserve">
<style type="text/css">
	.st0{fill:#333333;}
</style>
<g>
	<path class="st0" d="M15.5,6H12V4c0-2.2-1.8-4-4-4S4,1.8,4,4v2H0.5C0.2,6,0,6.2,0,6.5v13C0,19.8,0.2,20,0.5,20h15
		c0.3,0,0.5-0.2,0.5-0.5v-13C16,6.2,15.8,6,15.5,6z M5,4c0-1.7,1.3-3,3-3s3,1.3,3,3v2H5V4z M15,19H1V7h14V19z"/>
</g>
</svg>
