<?xml version="1.0" encoding="utf-8"?>
<!-- Generator: Adobe Illustrator 21.1.0, SVG Export Plug-In . SVG Version: 6.00 Build 0)  -->
<svg version="1.1" id="Layer_1" xmlns="http://www.w3.org/2000/svg" xmlns:xlink="http://www.w3.org/1999/xlink" x="0px" y="0px"
	 viewBox="0 0 46.3 46.3" style="enable-background:new 0 0 46.3 46.3;" xml:space="preserve">
<style type="text/css">
	.st0{fill:#333333;}
</style>
<title>Close 7.6</title>
<desc>Created with Sketch.</desc>
<g>
	<g>
		<path class="st0" d="M22.4,19.4c0.4,0.4,1,0.4,1.4,0L42.6,0.6c0.8-0.8,2.2-0.8,3,0l0,0c0.8,0.8,0.8,2.1,0,3L26.8,22.4
			c-0.4,0.4-0.4,1,0,1.4l18.8,18.8c0.8,0.8,0.8,2.2,0,3l0,0c-0.8,0.8-2.1,0.8-3,0L23.8,26.8c-0.4-0.4-1-0.4-1.4,0L3.6,45.6
			c-0.8,0.8-2.2,0.8-3,0l0,0c-0.8-0.8-0.8-2.1,0-3l18.8-18.8c0.4-0.4,0.4-1,0-1.4L0.6,3.6c-0.8-0.8-0.8-2.2,0-3l0,0
			c0.8-0.8,2.1-0.8,3,0L22.4,19.4z"/>
	</g>
</g>
</svg>
