<?xml version="1.0" encoding="utf-8"?>
<!-- Generator: Adobe Illustrator 21.1.0, SVG Export Plug-In . SVG Version: 6.00 Build 0)  -->
<svg version="1.1" id="Layer_1" xmlns="http://www.w3.org/2000/svg" xmlns:xlink="http://www.w3.org/1999/xlink" x="0px" y="0px"
	 viewBox="0 0 26 26" style="enable-background:new 0 0 26 26;" xml:space="preserve">
<style type="text/css">
	.st0{fill:#C5BCCF;}
</style>
<g transform="translate(-30 -260)">
	<g>
		<path class="st0" d="M43,260c-7.2,0-13,5.1-13,11.5c0,3.3,1.5,6.2,4,8.3c0.9,0.8,1,3.2-3,6.2c6-1,7.7-3.6,8.6-3.4
			c1.1,0.3,2.2,0.4,3.4,0.4c7.2,0,13-5.1,13-11.5S50.2,260,43,260z M43,282c-1.1,0-2.2-0.1-3.2-0.4c-0.1,0-0.2,0-0.3,0
			c-0.6,0-1.1,0.3-1.8,0.8s-1.7,1.1-3.3,1.7c0.8-1.2,1.1-2.2,1.1-2.9c0-0.9-0.3-1.7-0.9-2.2c-2.3-2-3.6-4.7-3.6-7.5
			c0-5.8,5.4-10.5,12-10.5s12,4.7,12,10.5S49.6,282,43,282z"/>
	</g>
</g>
</svg>
