<svg width="80" height="80" xmlns="http://www.w3.org/2000/svg">
 <title/>

 <g>
  <title>background</title>
  <rect fill="none" id="canvas_background" height="82" width="82" y="-1" x="-1"/>
 </g>
 <g>
  <title>Layer 1</title>
  <path stroke="null" id="svg_2" fill="#FFFFFF" d="m40.872347,22.115848c-3.412349,0.453948 -6.825561,1.070144 -9.644364,2.442913c-5.489694,2.29796 -9.20145,7.190157 -9.20145,14.379407c0,9.0278 5.640283,13.610074 12.76171,13.610074c2.37766,0 4.306165,-0.300811 6.083218,-0.760221c2.822344,-0.918821 5.195556,-2.599678 8.01438,-5.659695c1.633525,2.297982 2.07646,3.368105 4.897919,5.811018c0.742343,0.309016 1.484707,0.309016 2.07646,-0.151323c1.780573,-1.529534 4.894378,-4.280535 6.531444,-5.810997c0.740572,-0.617125 0.589983,-1.530462 0.148818,-2.297982c-1.635296,-2.140267 -3.265279,-3.978839 -3.265279,-8.102609l0,-13.768674c0,-5.816481 0.441165,-11.168089 -3.710871,-15.140536c-3.412327,-3.21771 -8.754952,-4.438249 -12.908758,-4.438249l-1.784114,0c-7.567925,0.459411 -15.580534,3.820217 -17.364648,13.459679c-0.292325,1.220539 0.598836,1.680857 1.19236,1.83855l8.308497,1.070144c0.891182,-0.157693 1.334096,-0.91975 1.481165,-1.688155c0.745884,-3.361735 3.414983,-5.041685 6.382626,-5.350701l0.597065,0c1.775261,0 3.706444,0.76752 4.74733,2.290683c1.181737,1.839478 1.03823,4.287833 1.03823,6.428122l0,1.222353c-1.928527,0.156786 -4.154691,0.308109 -6.38174,0.616197zm6.382626,8.259395c0,3.519428 0.143506,6.270429 -1.633525,9.324055c-1.03823,2.140267 -2.818824,3.518521 -4.749101,3.978839c-0.295888,0 -0.737052,0.157693 -1.185278,0.157693c-3.26353,0 -5.197348,-2.600606 -5.197348,-6.427215c0,-4.892175 2.822344,-7.190157 6.382626,-8.260302c1.931162,-0.459411 4.157347,-0.610712 6.382626,-0.610712l0,1.837643l0,0zm27.33323,42.940431c3.628472,-3.157552 5.159258,-8.890167 5.238979,-11.883634l0,-0.498623c0,-0.669056 -0.159464,-1.162195 -0.31802,-1.41196c-0.726407,-0.91243 -6.052211,-1.747406 -10.644504,-0.334517c-1.288924,0.42022 -2.420176,0.998111 -3.467259,1.746477c-0.806128,0.584304 -0.645801,1.325373 0.161213,1.246083c0.885871,-0.169548 2.017123,-0.247951 3.306047,-0.42022c2.822344,-0.242467 6.128369,-0.32724 6.932748,0.750181c1.125034,1.410146 -1.288945,7.562073 -2.34134,10.221909c-0.31802,0.834976 0.405731,1.168587 1.132138,0.584304l0,0zm-74.088955,-11.883634c10.398215,9.723307 24.103384,15.541602 39.424329,15.541602c9.512388,0 20.474912,-2.74461 28.941081,-7.977715c1.131231,-0.669985 2.256286,-1.417445 3.303369,-2.245101c1.451929,-1.077443 0.163005,-2.744631 -1.288924,-2.081945c-0.64403,0.249765 -1.370437,0.585211 -2.01356,0.834048c-9.275859,3.742763 -19.023869,5.488334 -28.056981,5.488334c-14.351833,0 -28.216444,-4.075445 -39.42258,-10.805285c-1.048854,-0.578819 -1.776146,0.497695 -0.886734,1.246062l0,0z"/>
 </g>
</svg>