<?xml version="1.0" encoding="utf-8"?>
<!-- Generator: Adobe Illustrator 21.1.0, SVG Export Plug-In . SVG Version: 6.00 Build 0)  -->
<svg version="1.1" id="Layer_1" xmlns:sketch="http://www.bohemiancoding.com/sketch/ns"
	 xmlns="http://www.w3.org/2000/svg" xmlns:xlink="http://www.w3.org/1999/xlink" x="0px" y="0px" viewBox="0 0 18 11"
	 style="enable-background:new 0 0 18 11;" xml:space="preserve">
<style type="text/css">
	.st0{fill:#333333;}
	.st1{fill:none;}
</style>
<title>editor_list_view_hambuger_menu_outline_stroke</title>
<description>Created with Sketch.</description>
<g sketch:type="MSPage">
	<g>
		<g sketch:type="MSShapeGroup">
			<path id="a" class="st0" d="M0,0.5C0,0.8,0.3,1,0.6,1h16.8C17.7,1,18,0.8,18,0.5C18,0.2,17.7,0,17.4,0H0.6C0.3,0,0,0.2,0,0.5z
				 M0,5.5C0,5.8,0.3,6,0.6,6h16.8C17.7,6,18,5.8,18,5.5C18,5.2,17.7,5,17.4,5H0.6C0.3,5,0,5.2,0,5.5z M0,10.5C0,10.8,0.3,11,0.6,11
				h16.8c0.3,0,0.6-0.2,0.6-0.5c0-0.3-0.3-0.5-0.6-0.5H0.6C0.3,10,0,10.2,0,10.5z"/>
		</g>
		<g>
			<path id="a_1_" class="st1" d="M0,0.5C0,0.8,0.3,1,0.6,1h16.8C17.7,1,18,0.8,18,0.5C18,0.2,17.7,0,17.4,0H0.6C0.3,0,0,0.2,0,0.5z
				 M0,5.5C0,5.8,0.3,6,0.6,6h16.8C17.7,6,18,5.8,18,5.5C18,5.2,17.7,5,17.4,5H0.6C0.3,5,0,5.2,0,5.5z M0,10.5C0,10.8,0.3,11,0.6,11
				h16.8c0.3,0,0.6-0.2,0.6-0.5c0-0.3-0.3-0.5-0.6-0.5H0.6C0.3,10,0,10.2,0,10.5z"/>
		</g>
	</g>
</g>
</svg>
