<?xml version="1.0" encoding="utf-8"?>
<!-- Generator: Adobe Illustrator 21.1.0, SVG Export Plug-In . SVG Version: 6.00 Build 0)  -->
<svg version="1.1"
	 id="Layer_1" xmlns:cc="http://creativecommons.org/ns#" xmlns:dc="http://purl.org/dc/elements/1.1/" xmlns:inkscape="http://www.inkscape.org/namespaces/inkscape" xmlns:rdf="http://www.w3.org/1999/02/22-rdf-syntax-ns#" xmlns:sodipodi="http://sodipodi.sourceforge.net/DTD/sodipodi-0.dtd" xmlns:svg="http://www.w3.org/2000/svg"
	 xmlns="http://www.w3.org/2000/svg" xmlns:xlink="http://www.w3.org/1999/xlink" x="0px" y="0px" viewBox="0 0 74 74"
	 style="enable-background:new 0 0 74 74;" xml:space="preserve">
<style type="text/css">
	.st0{fill:#FFFFFF;}
</style>
<g transform="translate(0,-952.36218)">
	<path class="st0" d="M31,952.4c-17.1,0-31,13.9-31,31s13.9,31,31,31c7.5,0,14.3-2.7,19.7-7.1l18.2,18.2c1.2,1.2,3.1,1.2,4.2,0
		c1.2-1.2,1.2-3.1,0-4.2L54.9,1003c4.4-5.4,7.1-12.2,7.1-19.7C62,966.3,48.1,952.4,31,952.4L31,952.4z M31,958.4
		c13.8,0,25,11.2,25,25s-11.2,25-25,25s-25-11.2-25-25C6,969.5,17.2,958.4,31,958.4z"/>
</g>
</svg>
