<svg width="56.693" height="56.693" xmlns="http://www.w3.org/2000/svg">

 <g>
  <title>background</title>
  <rect fill="none" id="canvas_background" height="402" width="582" y="-1" x="-1"/>
 </g>
 <g>
  <title>Layer 1</title>
  <path stroke="null" fill="#ffffff" id="svg_1" d="m41.45437,18.477651l-8.92417,0l0,-5.852948c0,-2.198066 1.456817,-2.71052 2.482892,-2.71052c1.023741,0 6.297698,0 6.297698,0l0,-9.663084l-8.673196,-0.033852c-9.628065,0 -11.819126,7.207041 -11.819126,11.819126l0,6.441278l-5.568122,0l0,9.957249l5.568122,0c0,12.778664 0,28.17563 0,28.17563l11.711733,0c0,0 0,-15.548717 0,-28.17563l7.902764,0l1.021406,-9.957249z"/>
 </g>
</svg>